<?xml version="1.0" encoding="UTF-8"?>
<svg id="_Слой_2" data-name="Слой 2" xmlns="http://www.w3.org/2000/svg" viewBox="0 0 172.67 127.08">
  <defs>
    <style>
      .cls-1 {
        fill: none;
        stroke-miterlimit: 10;
        stroke-width: 2px;
      }

      .cls-1, .cls-2 {
        stroke: #fff;
      }

      .cls-2 {
        fill: #fff;
        font-family: Arial-BoldMT, Arial;
        font-size: 18px;
        font-weight: 700;
      }
    </style>
  </defs>
  <g id="_Слой_1-2" data-name="Слой 1">
    <circle class="cls-1" cx="15.17" cy="32.24" r="14.17"/>
    <text class="cls-2" transform="translate(10.17 38.68)"><tspan x="0" y="0">1</tspan></text>
    <circle class="cls-1" cx="86.33" cy="32.24" r="14.17"/>
    <text class="cls-2" transform="translate(81.33 38.68)"><tspan x="0" y="0">2</tspan></text>
    <circle class="cls-1" cx="157.49" cy="32.24" r="14.17"/>
    <text class="cls-2" transform="translate(152.49 38.68)"><tspan x="0" y="0">3</tspan></text>
    <circle class="cls-1" cx="157.49" cy="111.91" r="14.17"/>
    <text class="cls-2" transform="translate(152.49 118.36)"><tspan x="0" y="0">4</tspan></text>
    <circle class="cls-1" cx="86.33" cy="111.91" r="14.17"/>
    <text class="cls-2" transform="translate(81.33 118.36)"><tspan x="0" y="0">5</tspan></text>
    <circle class="cls-1" cx="15.17" cy="111.91" r="14.17"/>
    <text class="cls-2" transform="translate(10.17 118.36)"><tspan x="0" y="0">6</tspan></text>
    <line class="cls-1" x1="25.84" y1="41.57" x2="143.32" y2="105.4"/>
    <line class="cls-1" x1="157.49" y1="46.41" x2="157.49" y2="97.74"/>
    <line class="cls-1" x1="143.32" y1="32.24" x2="100.51" y2="32.24"/>
    <line class="cls-1" x1="72.16" y1="32.24" x2="29.35" y2="32.24"/>
    <line class="cls-1" x1="15.17" y1="46.41" x2="15.17" y2="97.74"/>
    <line class="cls-1" x1="29.35" y1="111.91" x2="72.16" y2="111.91"/>
    <line class="cls-1" x1="100.51" y1="111.91" x2="143.32" y2="111.91"/>
    <text class="cls-2" transform="translate(117.07 15.94)"><tspan x="0" y="0">Г1</tspan></text>
    <text class="cls-2" transform="translate(111.1 66.89)"><tspan x="0" y="0">Г2</tspan></text>
    <text class="cls-2" transform="translate(38.4 88.6)"><tspan x="0" y="0">Г3</tspan></text>
  </g>
</svg>