<?xml version="1.0" encoding="UTF-8"?>
<svg id="_Слой_2" data-name="Слой 2" xmlns="http://www.w3.org/2000/svg" viewBox="0 0 279.4 129.78">
  <defs>
    <style>
      .cls-1 {
        fill: none;
        stroke-miterlimit: 10;
        stroke-width: 2px;
      }

      .cls-1, .cls-2 {
        stroke: #fff;
      }

      .cls-2 {
        fill: #fff;
        font-family: Arial-BoldMT, Arial;
        font-size: 18px;
        font-weight: 700;
      }
    </style>
  </defs>
  <g id="_Слой_1-2" data-name="Слой 1">
    <text class="cls-2" transform="translate(10.17 21.62)"><tspan x="0" y="0">1</tspan></text>
    <rect class="cls-1" x="1" y="1" width="28.35" height="28.35"/>
    <text class="cls-2" transform="translate(10.17 83.35)"><tspan x="0" y="0">4</tspan></text>
    <rect class="cls-1" x="1" y="62.74" width="28.35" height="28.35"/>
    <line class="cls-1" x1="15.17" y1="29.35" x2="15.17" y2="62.74"/>
    <text class="cls-2" transform="translate(59.92 21.62)"><tspan x="0" y="0">2</tspan></text>
    <rect class="cls-1" x="50.75" y="1" width="28.35" height="28.35"/>
    <text class="cls-2" transform="translate(59.92 83.35)"><tspan x="0" y="0">5</tspan></text>
    <rect class="cls-1" x="50.75" y="62.74" width="28.35" height="28.35"/>
    <line class="cls-1" x1="64.93" y1="29.35" x2="64.93" y2="62.74"/>
    <text class="cls-2" transform="translate(109.75 21.62)"><tspan x="0" y="0">2</tspan></text>
    <rect class="cls-1" x="100.58" y="1" width="28.35" height="28.35"/>
    <text class="cls-2" transform="translate(109.75 83.35)"><tspan x="0" y="0">4</tspan></text>
    <rect class="cls-1" x="100.58" y="62.74" width="28.35" height="28.35"/>
    <line class="cls-1" x1="114.75" y1="29.35" x2="114.75" y2="62.74"/>
    <text class="cls-2" transform="translate(159.57 21.62)"><tspan x="0" y="0">3</tspan></text>
    <rect class="cls-1" x="150.4" y="1" width="28.35" height="28.35"/>
    <text class="cls-2" transform="translate(159.57 83.35)"><tspan x="0" y="0">5</tspan></text>
    <rect class="cls-1" x="150.4" y="62.74" width="28.35" height="28.35"/>
    <line class="cls-1" x1="164.58" y1="29.35" x2="164.58" y2="62.74"/>
    <text class="cls-2" transform="translate(209.4 83.35)"><tspan x="0" y="0">6</tspan></text>
    <rect class="cls-1" x="200.23" y="62.74" width="28.35" height="28.35"/>
    <text class="cls-2" transform="translate(259.22 83.35)"><tspan x="0" y="0">5</tspan></text>
    <rect class="cls-1" x="250.05" y="62.74" width="28.35" height="28.35"/>
    <circle class="cls-1" cx="239.97" cy="15.17" r="14.17"/>
    <text class="cls-2" transform="translate(234.96 21.62)"><tspan x="0" y="0">7</tspan></text>
    <line class="cls-1" x1="235.72" y1="29.35" x2="214.4" y2="62.74"/>
    <line class="cls-1" x1="244.18" y1="28.71" x2="264.23" y2="62.74"/>
    <text class="cls-2" transform="translate(8.24 122.5)"><tspan x="0" y="0">S1</tspan></text>
    <text class="cls-2" transform="translate(57 122.5)"><tspan x="0" y="0">S2</tspan></text>
    <text class="cls-2" transform="translate(105.75 122.5)"><tspan x="0" y="0">S3</tspan></text>
    <text class="cls-2" transform="translate(155.58 122.5)"><tspan x="0" y="0">S4</tspan></text>
    <text class="cls-2" transform="translate(230.97 122.5)"><tspan x="0" y="0">S5</tspan></text>
  </g>
</svg>