<?xml version="1.0" encoding="UTF-8"?>
<svg id="_Слой_2" data-name="Слой 2" xmlns="http://www.w3.org/2000/svg" viewBox="0 0 242.83 111.07">
  <defs>
    <style>
      .cls-1 {
        fill: none;
        stroke-miterlimit: 10;
        stroke-width: 2px;
      }

      .cls-1, .cls-2 {
        stroke: #fff;
      }

      .cls-2 {
        fill: #fff;
        font-family: Arial-BoldMT, Arial;
        font-size: 18px;
        font-weight: 700;
      }
    </style>
  </defs>
  <g id="_Слой_1-2" data-name="Слой 1">
    <circle class="cls-1" cx="15.17" cy="16.23" r="14.17"/>
    <text class="cls-2" transform="translate(10.17 22.67)"><tspan x="0" y="0">1</tspan></text>
    <circle class="cls-1" cx="86.33" cy="16.23" r="14.17"/>
    <text class="cls-2" transform="translate(81.33 22.67)"><tspan x="0" y="0">2</tspan></text>
    <circle class="cls-1" cx="157.49" cy="16.23" r="14.17"/>
    <text class="cls-2" transform="translate(152.49 22.67)"><tspan x="0" y="0">5</tspan></text>
    <circle class="cls-1" cx="157.49" cy="95.9" r="14.17"/>
    <text class="cls-2" transform="translate(152.49 102.34)"><tspan x="0" y="0">7</tspan></text>
    <circle class="cls-1" cx="86.33" cy="95.9" r="14.17"/>
    <text class="cls-2" transform="translate(81.33 102.34)"><tspan x="0" y="0">4</tspan></text>
    <circle class="cls-1" cx="15.17" cy="95.9" r="14.17"/>
    <text class="cls-2" transform="translate(10.17 102.34)"><tspan x="0" y="0">3</tspan></text>
    <line class="cls-1" x1="157.49" y1="30.4" x2="157.49" y2="81.73"/>
    <line class="cls-1" x1="72.16" y1="16.23" x2="29.35" y2="16.23"/>
    <line class="cls-1" x1="15.17" y1="30.4" x2="15.17" y2="81.73"/>
    <line class="cls-1" x1="29.35" y1="95.9" x2="72.16" y2="95.9"/>
    <line class="cls-1" x1="86.33" y1="30.4" x2="86.33" y2="81.73"/>
    <line class="cls-1" x1="98.42" y1="23.63" x2="147.45" y2="86.39"/>
    <circle class="cls-1" cx="227.66" cy="15.17" r="14.17"/>
    <text class="cls-2" transform="translate(222.65 21.62)"><tspan x="0" y="0">6</tspan></text>
    <circle class="cls-1" cx="227.66" cy="94.85" r="14.17"/>
    <text class="cls-2" transform="translate(222.65 101.29)"><tspan x="0" y="0">8</tspan></text>
    <line class="cls-1" x1="213.48" y1="15.17" x2="170.67" y2="15.17"/>
    <line class="cls-1" x1="170.67" y1="94.85" x2="213.48" y2="94.85"/>
    <line class="cls-1" x1="227.66" y1="29.35" x2="227.66" y2="80.67"/>
  </g>
</svg>