<?xml version="1.0" encoding="UTF-8"?>
<svg id="_Слой_2" data-name="Слой 2" xmlns="http://www.w3.org/2000/svg" viewBox="0 0 172.67 110.02">
  <defs>
    <style>
      .cls-1 {
        fill: none;
        stroke-miterlimit: 10;
        stroke-width: 2px;
      }

      .cls-1, .cls-2 {
        stroke: #fff;
      }

      .cls-2 {
        fill: #fff;
        font-family: Arial-BoldMT, Arial;
        font-size: 18px;
        font-weight: 700;
      }
    </style>
  </defs>
  <g id="_Слой_1-2" data-name="Слой 1">
    <circle class="cls-1" cx="15.17" cy="15.17" r="14.17"/>
    <text class="cls-2" transform="translate(10.17 21.62)"><tspan x="0" y="0">1</tspan></text>
    <circle class="cls-1" cx="86.33" cy="15.17" r="14.17"/>
    <text class="cls-2" transform="translate(81.33 21.62)"><tspan x="0" y="0">2</tspan></text>
    <circle class="cls-1" cx="157.49" cy="15.17" r="14.17"/>
    <text class="cls-2" transform="translate(152.49 21.62)"><tspan x="0" y="0">5</tspan></text>
    <circle class="cls-1" cx="157.49" cy="94.85" r="14.17"/>
    <text class="cls-2" transform="translate(152.49 101.29)"><tspan x="0" y="0">6</tspan></text>
    <circle class="cls-1" cx="86.33" cy="94.85" r="14.17"/>
    <text class="cls-2" transform="translate(81.33 101.29)"><tspan x="0" y="0">4</tspan></text>
    <circle class="cls-1" cx="15.17" cy="94.85" r="14.17"/>
    <text class="cls-2" transform="translate(10.17 101.29)"><tspan x="0" y="0">3</tspan></text>
    <line class="cls-1" x1="157.49" y1="29.35" x2="157.49" y2="80.67"/>
    <line class="cls-1" x1="72.16" y1="15.17" x2="29.35" y2="15.17"/>
    <line class="cls-1" x1="15.17" y1="29.35" x2="15.17" y2="80.67"/>
    <line class="cls-1" x1="86.33" y1="29.35" x2="86.33" y2="80.67"/>
    <line class="cls-1" x1="98.42" y1="22.58" x2="147.45" y2="85.33"/>
  </g>
</svg>